<?xml version="1.0" encoding="UTF-8"?>
<svg id="_Слой_2" data-name="Слой 2" xmlns="http://www.w3.org/2000/svg" viewBox="0 0 465.94 193.72">
  <defs>
    <style>
      .cls-1 {
        fill: #279134;
      }

      .cls-1, .cls-2, .cls-3, .cls-4 {
        stroke-width: 0px;
      }

      .cls-2 {
        fill: #396225;
      }

      .cls-3 {
        fill: #eb8000;
      }

      .cls-4 {
        fill: #004027;
      }
    </style>
  </defs>
  <g id="_Слой_1-2" data-name="Слой 1">
    <g>
      <g>
        <path class="cls-4" d="m309.06,84.42h-28.18c-1.11,0-2.04.39-2.76,1.16-.7.75-1.06,1.68-1.06,2.77v8.27c0,1.09.36,2.02,1.06,2.77.72.77,1.65,1.16,2.76,1.16h9.49v1.1c0,4.36-1.22,7.62-3.61,9.68-2.44,2.1-5.77,3.16-9.9,3.16-8.52,0-12.87-4.51-13.29-13.77-.07-2.15-.11-5.38-.11-9.69s.04-7.62.11-9.68c.42-8.82,4.66-13.11,12.95-13.11,3.48,0,6.2.74,8.1,2.19,1.94,1.49,3.38,3.26,4.29,5.29.4.8.93,1.36,1.58,1.69.6.3,1.33.44,2.25.44h16.32c.93,0,1.75-.32,2.43-.94.69-.64,1.06-1.48,1.06-2.47-.16-4.01-1.72-7.93-4.63-11.66-2.89-3.7-7.08-6.77-12.47-9.14-5.36-2.36-11.73-3.55-18.91-3.55-10.71,0-19.33,2.68-25.65,7.95-6.35,5.31-9.77,12.93-10.15,22.66-.07,2.16-.11,5.64-.11,10.32s.04,8.16.11,10.33c.38,9.94,3.74,17.73,9.97,23.15,6.2,5.4,14.89,8.13,25.83,8.13,7.2,0,13.6-1.25,19.04-3.72,5.49-2.5,9.79-6.16,12.8-10.89,3-4.73,4.52-10.42,4.52-16.93v-12.75c0-1.08-.36-2.01-1.06-2.77-.72-.77-1.65-1.16-2.76-1.16Z"/>
        <path class="cls-4" d="m376.07,87.47c-4.19-1.93-9.86-3.55-16.82-4.82-4.19-.88-7.43-1.75-9.63-2.58-2.12-.8-3.65-1.68-4.54-2.6-.82-.85-1.22-1.9-1.22-3.2,0-1.97.73-3.4,2.23-4.4,1.61-1.07,4.02-1.62,7.15-1.62,2.7,0,4.99.55,6.79,1.64,1.73,1.04,2.8,2.3,3.17,3.74l.14.31c.54.81,1.17,1.41,1.88,1.79.71.38,1.6.57,2.66.57h14.76c.95,0,1.76-.33,2.4-.97s.97-1.47.97-2.45c-.16-3.47-1.56-7.02-4.17-10.56-2.59-3.52-6.39-6.46-11.29-8.76-4.88-2.29-10.71-3.45-17.32-3.45s-12.04,1.04-16.84,3.1c-4.85,2.08-8.65,5.02-11.28,8.73-2.65,3.74-3.99,8.04-3.99,12.78,0,7,2.36,12.48,7.03,16.28,4.54,3.7,11.44,6.54,20.5,8.43,4.8,1.03,8.45,1.97,10.85,2.77,2.31.77,4.02,1.64,5.06,2.58.94.85,1.4,1.92,1.4,3.26,0,1.94-.94,3.45-2.86,4.6-2.06,1.24-5.16,1.87-9.2,1.87-3.38,0-6.1-.59-8.09-1.76-1.98-1.16-3.43-2.63-4.3-4.38l-.15-.22c-.67-.76-1.32-1.31-1.97-1.71-.72-.43-1.63-.65-2.71-.65h-14.09c-.94,0-1.79.36-2.46,1.03s-1.03,1.47-1.02,2.38c.15,4.22,1.6,8.16,4.29,11.7,2.67,3.53,6.67,6.4,11.89,8.54,5.17,2.13,11.43,3.21,18.61,3.21,6.65,0,12.66-1.02,17.87-3.03,5.26-2.03,9.43-5,12.4-8.82,3-3.86,4.52-8.45,4.52-13.65,0-4.72-1.03-8.73-3.07-11.9-2.04-3.18-5.25-5.79-9.55-7.76Z"/>
        <path class="cls-4" d="m465.47,126.42l-14.79-26.55c4.01-1.99,7.24-4.76,9.6-8.27,2.56-3.8,3.86-8.47,3.86-13.88,0-8.41-2.89-15.02-8.6-19.64-5.64-4.57-13.55-6.88-23.51-6.88h-30.41c-1.01,0-1.9.36-2.66,1.06-.76.71-1.16,1.66-1.16,2.76v72.68c0,1.02.38,1.92,1.14,2.68s1.66,1.14,2.68,1.14h14.42c1.08,0,2.01-.36,2.77-1.06.76-.71,1.16-1.66,1.16-2.76v-23.8h9.76l12.43,23.99c1.06,2.37,2.96,3.63,5.52,3.63h14.87c.87,0,1.66-.35,2.35-1.03.68-.68,1.03-1.47,1.03-2.34,0-.53-.15-1.1-.46-1.73Zm-24.17-48.92c0,2.71-.77,4.75-2.36,6.24-1.59,1.49-3.98,2.24-7.13,2.24h-11.83v-17.19h11.83c3.21,0,5.61.78,7.16,2.33,1.57,1.57,2.33,3.65,2.33,6.38Z"/>
      </g>
      <path class="cls-3" d="m145.29,119.11v1.96c0,32.39-1.96,50.55-12.03,60.62-10.06,10.06-28.22,12.03-60.62,12.03C7.83,193.72,0,185.86,0,121.07c0-32.39,1.96-50.55,12.03-60.62,10.06-10.06,28.2-12.03,60.62-12.03h1.96c-1.32,6.86-1.96,14.47-1.96,22.9v49.75h49.72c8.42,0,16.06-.65,22.92-1.96Z"/>
      <path class="cls-2" d="m145.29,119.11c-6.86,1.32-14.5,1.96-22.92,1.96h-49.72v-49.75c0-8.42.65-16.04,1.96-22.9,31.16.08,48.81,2.18,58.65,12.03,9.85,9.85,11.95,27.5,12.03,58.65Z"/>
      <path class="cls-1" d="m193.72,0v49.75c0,40.92-15.12,63.01-48.43,69.36-.08-31.16-2.18-48.81-12.03-58.65-9.85-9.85-27.5-11.95-58.65-12.03C80.93,15.12,103.02,0,143.97,0h49.75Z"/>
      <g>
        <path class="cls-4" d="m268.31,159.43h-11.09c-.4,0-.73.14-.98.41-.24.26-.37.59-.37.98v29.9c0,.4.13.72.37.97s.58.37.97.37h.82c.39,0,.72-.12.98-.37.27-.25.41-.58.41-.98v-11.71h8.88c3.33,0,5.99-.85,7.92-2.53,1.94-1.69,2.93-4.13,2.93-7.26s-.98-5.58-2.93-7.26c-1.93-1.68-4.59-2.53-7.92-2.53Zm7.28,9.79c0,2.08-.62,3.67-1.85,4.74-1.24,1.08-3.14,1.63-5.66,1.63h-8.65v-12.74h8.65c2.52,0,4.43.55,5.66,1.63,1.23,1.07,1.85,2.66,1.85,4.74Z"/>
        <path class="cls-4" d="m305.42,160.56c-.3-.74-.86-1.13-1.64-1.13h-1.55c-.78,0-1.35.39-1.64,1.13l-11.57,29.69-.1.56c0,.34.13.63.37.88s.54.37.88.37h.91c.36,0,.66-.11.89-.32.21-.19.35-.38.43-.58l2.75-7.09h15.69l2.75,7.09c.08.2.22.4.43.58.23.21.53.32.89.32h.91c.34,0,.63-.13.88-.37s.37-.54.37-.94l-.11-.56-11.55-29.63Zm4.07,20.1h-12.97l6.49-16.7,6.49,16.7Z"/>
        <path class="cls-4" d="m342.76,172.99h-9.84v-10.14h16.78c.39,0,.72-.12.99-.37.27-.25.41-.58.41-.98v-.68c0-.43-.13-.77-.37-1.02s-.59-.37-1.02-.37h-18.99c-.4,0-.73.14-.98.41-.24.26-.37.59-.37.98v29.9c0,.4.13.72.37.97s.58.37.97.37h12.05c2.16,0,4.01-.49,5.5-1.47,1.49-.97,2.61-2.22,3.34-3.7.72-1.47,1.08-2.98,1.08-4.49,0-2.85-.89-5.16-2.64-6.86-1.75-1.7-4.2-2.56-7.29-2.56Zm6.37,9.29c0,1.15-.28,2.23-.82,3.21-.54.97-1.33,1.75-2.35,2.31-1.03.56-2.25.85-3.65.85h-9.38v-12.24h9.38c2.27,0,4,.53,5.13,1.58,1.14,1.05,1.69,2.46,1.69,4.29Z"/>
        <path class="cls-4" d="m385.87,162.27c-2.19-2.19-5.19-3.3-8.91-3.3s-6.73,1.11-8.92,3.3c-2.18,2.18-3.35,5.42-3.48,9.63-.03.91-.05,2.17-.05,3.85s.01,2.93.05,3.85c.22,8.58,4.39,12.93,12.39,12.93s12.17-4.35,12.39-12.93c.06-1.82.09-3.12.09-3.85s-.03-2.02-.09-3.84c-.12-4.21-1.29-7.45-3.48-9.64Zm.01,13.48c0,.57-.03,1.78-.09,3.59-.12,3.31-.97,5.79-2.53,7.38-1.55,1.58-3.68,2.39-6.31,2.39s-4.75-.8-6.31-2.39c-1.56-1.59-2.41-4.07-2.53-7.38-.03-.9-.05-2.08-.05-3.59s.01-2.69.05-3.59c.12-3.3.98-5.78,2.55-7.37,1.57-1.58,3.68-2.39,6.29-2.39s4.71.8,6.29,2.39c1.57,1.59,2.43,4.07,2.55,7.37.06,1.81.09,3.02.09,3.59Z"/>
        <path class="cls-4" d="m422.79,159.43h-20.91c-.4,0-.73.14-.98.41-.24.26-.37.59-.37.98v.68c0,.4.13.72.37.97s.58.37.97.37h8.7v27.87c0,.4.13.72.37.97s.58.37.97.37h.82c.39,0,.72-.12.98-.37.27-.25.41-.58.41-.98v-27.87h8.65c.39,0,.72-.12.98-.37.27-.25.41-.58.41-.98v-.68c0-.43-.13-.77-.37-1.02s-.59-.37-1.02-.37Z"/>
        <path class="cls-4" d="m461.46,190.19l-11.55-29.63c-.3-.74-.86-1.13-1.64-1.13h-1.55c-.78,0-1.35.39-1.64,1.13l-11.57,29.69-.1.56c0,.34.13.63.37.88s.54.37.88.37h.91c.36,0,.66-.11.89-.32.21-.19.35-.38.43-.58l2.75-7.09h15.69l2.75,7.09c.08.2.22.4.43.58.23.21.53.32.89.32h.91c.34,0,.63-.13.88-.37s.37-.54.37-.94l-.11-.56Zm-7.48-9.53h-12.97l6.49-16.7,6.49,16.7Z"/>
      </g>
    </g>
  </g>
</svg>